<?xml version="1.0" encoding="UTF-8" standalone="no"?>
<svg
   version="1.0"
   width="690.000000pt"
   height="361.000000pt"
   viewBox="0 0 690.000000 361.000000"
   preserveAspectRatio="xMidYMid meet"
   id="svg291"
   sodipodi:docname="bglogo.svg"
   inkscape:version="1.2 (dc2aeda, 2022-05-15)"
   xmlns:inkscape="http://www.inkscape.org/namespaces/inkscape"
   xmlns:sodipodi="http://sodipodi.sourceforge.net/DTD/sodipodi-0.dtd"
   xmlns="http://www.w3.org/2000/svg"
   xmlns:svg="http://www.w3.org/2000/svg">
  <defs
     id="defs295" />
  <sodipodi:namedview
     id="namedview293"
     pagecolor="#ffffff"
     bordercolor="#000000"
     borderopacity="0.25"
     inkscape:showpageshadow="2"
     inkscape:pageopacity="0.0"
     inkscape:pagecheckerboard="0"
     inkscape:deskcolor="#d1d1d1"
     inkscape:document-units="pt"
     showgrid="false"
     inkscape:zoom="3.438584"
     inkscape:cx="500.49671"
     inkscape:cy="248.93968"
     inkscape:window-width="1404"
     inkscape:window-height="800"
     inkscape:window-x="110"
     inkscape:window-y="110"
     inkscape:window-maximized="0"
     inkscape:current-layer="svg291" />
  <g
     transform="translate(0.000000,361.000000) scale(0.100000,-0.100000)"
     fill="#000000"
     stroke="none"
     id="g289">
    <path
       d="m 3368,1939 c -35,-20 -8,-67 32,-54 22,7 27,34 8,53 -14,14 -18,14 -40,1 z"
       id="path269"
       sodipodi:nodetypes="ccsc" />
    <path
       d="m 4345,1936 c -20,-15 -15,-43 10,-52 18,-7 45,12 45,32 0,22 -35,35 -55,20 z"
       id="path271"
       sodipodi:nodetypes="scss" />
    <path
       d="m 3690,1805 v -115 h 30 c 29,0 30,1 30,48 0,50 13,74 36,65 10,-3 14,-22 14,-59 v -54 h 35 35 v 68 c 0,54 -4,72 -18,85 -20,19 -67,23 -77,7 -13,-22 -25,-8 -25,30 0,38 -2,40 -30,40 h -30 z"
       id="path273"
       sodipodi:nodetypes="ccsscscccsccsscc" />
    <path
       d="m 4560,1886 c 0,-34 0,-34 -39,-29 -53,7 -81,-20 -81,-80 0,-68 22,-85 114,-85 l 76,-1 v 115 114 h -35 c -33,0 -35,-2 -35,-34 z m -5,-111 c 0,-23 -5,-31 -21,-33 -24,-3 -38,20 -28,50 4,13 13,18 27,16 17,-2 22,-10 22,-33 z"
       id="path275"
       sodipodi:nodetypes="scsccccssssccs" />
    <path
       d="m 3110,1801 v -111 h 35 c 32,0 35,2 35,30 0,20 -3.5995,35.3747 6.4005,35.3747 8,0 29.5995,-18.3747 38.5995,-35.3747 13,-25 22,-30 50,-30 40,0 41,2 19,40 -25.6744,24.9251 -29.9742,35.4496 -13.9742,57.4496 21,31 30.7494,69.9251 7.7494,98.9251 -17,21 -27.8501,25.0749 -97.8501,28.0749 L 3110,1912 Z m 126.8501,50.3747 c 18,-22 4.1499,-51.3747 -27.8501,-51.3747 -26,0 -29,4 -29,30 0,25 4,30 24,30 13,0 26.8501,-0.6253 32.8501,-8.6253 z"
       id="path277"
       sodipodi:nodetypes="ccssscscccccccsssc" />
    <path
       d="m 4098,1803 -46,-108 31,-3 c 20,-2 33,2 39,12 12,22 96,22 104,1 4,-9 19,-15 41,-15 40,0 42,-12 -15,127 -37,93 -37,93 -73,93 h -36 z m 102,-20 c 0,-7 -11,-13 -25,-13 -29,0 -28,-2 -14,40 l 12,33 13,-24 c 7,-13 13,-30 14,-36 z"
       id="path279"
       sodipodi:nodetypes="cccccscscccscccc" />
    <path
       d="m 3920,1875 c 0,-14 -4,-25 -10,-25 -5,0 -10,-9 -10,-20 0,-11 5,-20 10,-20 6,0 10,-17 10,-38 0,-56 23,-82 71,-82 33,0 39,3 39,21 0,12 -8,23 -20,26 -15,4 -20,14 -20,39 0,27 4,34 20,34 13,0 20,7 20,20 0,13 -7,20 -20,20 -15,0 -20,7 -20,25 0,22 -4,25 -35,25 -31,0 -35,-3 -35,-25 z"
       id="path281"
       sodipodi:nodetypes="ssssssscsssssss" />
    <path
       d="m 3350,1775 v -85 h 35 35 v 85 85 h -35 -35 z"
       id="path283"
       sodipodi:nodetypes="ccccccccc" />
    <path
       d="m 3476,1841 c -23,-26 -21,-96 4,-121 22,-22 42,-25 71,-10 15,8 19,7 19,-4 0,-22 -30,-35 -61,-26 -22,7 -28,4 -37,-15 -13,-29 -1,-35 68,-35 32,0 55,6 71,19 22,17 24,29 27,114 l 4,96 -75,-1 c -59,0 -79,-4 -91,-17 z m 92,-65 c -4,-30 -42,-28 -46,3 -2,13 2,27 9,32 18,11 41,-10 37,-35 z"
       id="path285"
       sodipodi:nodetypes="cscsccsccccccccc" />
    <path
       d="m 4330,1775 v -85 h 35 35 v 85 85 h -35 -35 z"
       id="path287"
       sodipodi:nodetypes="ccccccccc" />
  </g>
</svg>
